# xmcd
#
# Track frame offsets:
#	150
#	18521
#	30404
#	46938
#	66451
#	84055
#	99270
#	111861
#	128552
#	143090
#	156345
#	174487
#
# Disc length: 2556 seconds
# Revision: 0
# Processed by: cddbd v1.5.2PL0 Copyright (c) Steve Scherf et al.
# Submitted via: dBpowerAMP V12.0
#
DISCID=8f09fa0c
DTITLE=Trisha Yearwood - Favorites
DYEAR=2013
DGENRE=Country
TTITLE0=She's In Love With The Boy
TTITLE1=That's What I Like About You
TTITLE2=Like We Never Had A Broken Heart
TTITLE3=Walkaway Joe
TTITLE4=The Song Remembers When
TTITLE5=Thinkin' About You
TTITLE6=XXX's And OOO's (An American Girl)
TTITLE7=Believe Me Baby (I Lied)
TTITLE8=Everybody Knows
TTITLE9=A Perfect Love
TTITLE10=How Do I Live
TTITLE11=There Goes My Baby
EXTD=
EXTT0=
EXTT1=
EXTT2=
EXTT3=
EXTT4=
EXTT5=
EXTT6=
EXTT7=
EXTT8=
EXTT9=
EXTT10=
EXTT11=
PLAYORDER=
